# xmcd
#
# Track frame offsets:
#	150
#	14500
#	33424
#	49243
#	69014
#	87793
#	104376
#	119655
#	135614
#	153330
#	169882
#	188344
#	206538
#	224197
#	244448
#	260424
#
# Disc length: 3693 seconds
#
# Revision: 0
# Processed by: cddbd v1.5.1PL2 Copyright (c) Steve Scherf et al.
# Submitted via: audiograbber 1.83.01
#
DISCID=e60e6b10
DTITLE=диомусгс  своимас  - ти соу фгтгса 
DYEAR=1998
DGENRE=екк поп
TTITLE0=ти соу фгтгса
TTITLE1=дем ха се ажгсы поте лоу  (коциа)
TTITLE2=лгм йяатас оти хекеис ма диакусеис
TTITLE3=та жука йитяимисаме
TTITLE4=текеутаи жояа
TTITLE5=асто ци╢ апоье
TTITLE6=та дийа лоу та дийа соу
TTITLE7=дем с╢ амтевы
TTITLE8=йатеухиам
TTITLE9=еды еимаи то спити лоу
TTITLE10=покелос
TTITLE11=йкеидылемес йалаяес
TTITLE12=та латайиа соу
TTITLE13=ам поте соу
TTITLE14=делемои
TTITLE15=циати дем еисаи еды
EXTD=
EXTT0=
EXTT1=
EXTT2=
EXTT3=
EXTT4=
EXTT5=
EXTT6=
EXTT7=
EXTT8=
EXTT9=
EXTT10=
EXTT11=
EXTT12=
EXTT13=
EXTT14=
EXTT15=
PLAYORDER=
